<?xml version="1.0" standalone="no"?>
<!DOCTYPE svg PUBLIC "-//W3C//DTD SVG 1.0//EN" "http://www.w3.org/TR/2001/REC-SVG-20010904/DTD/svg10.dtd">
<svg xmlns="http://www.w3.org/2000/svg" xmlns:xlink="http://www.w3.org/1999/xlink" id="body_1" width="67" height="72">

<g transform="matrix(0.06666668 0 0 0.06666668 0.33333334 -0)">
	<g transform="matrix(0.1 0 -0 -0.1 0 1080)">
        <path d="M4908 7758C 4820 7750 4699 7712 4620 7667C 4535 7619 4441 7519 4392 7423C 4347 7336 4306 7295 4230 7259C 4205 7247 4051 7193 3886 7139C 3721 7085 3570 7030 3548 7015C 3483 6972 3457 6893 3481 6808L3481 6808L3491 6770L5000 6770L6509 6770L6519 6808C 6543 6893 6517 6972 6452 7015C 6430 7030 6279 7085 6114 7139C 5949 7193 5795 7247 5770 7259C 5694 7295 5653 7336 5608 7423C 5559 7519 5465 7619 5380 7667C 5252 7740 5078 7773 4908 7758zM5158 7724C 5346 7686 5509 7569 5584 7417C 5621 7341 5680 7276 5736 7247C 5778 7226 5966 7160 6204 7084C 6397 7022 6416 7014 6457 6975L6457 6975L6501 6932L6498 6864L6495 6795L5000 6795L3505 6795L3502 6864L3499 6932L3543 6975C 3584 7014 3603 7022 3796 7084C 4034 7160 4222 7226 4264 7247C 4320 7276 4379 7341 4416 7417C 4514 7614 4734 7737 4993 7739C 5041 7740 5116 7733 5158 7724z" stroke="none" fill="#000000" fill-rule="nonzero" />
        <path d="M4861 7595C 4778 7577 4683 7531 4633 7487C 4576 7435 4534 7353 4539 7303C 4541 7284 5456 7284 5463 7303C 5472 7326 5430 7417 5389 7464C 5288 7579 5055 7637 4861 7595zM5164 7564C 5245 7543 5294 7517 5351 7463C 5395 7422 5440 7351 5440 7322C 5440 7312 5336 7310 5000 7310C 4676 7311 4560 7314 4560 7322C 4560 7373 4658 7488 4736 7528C 4852 7587 5018 7601 5164 7564z" stroke="none" fill="#000000" fill-rule="nonzero" />
        <path d="M3539 6708C 3539 6701 3630 6053 3742 5268L3742 5268L3945 3840L4933 3838C 5476 3837 5950 3835 5987 3835L5987 3835L6054 3835L6260 5273C 6373 6064 6464 6713 6461 6715C 6459 6718 5800 6720 4998 6720C 3839 6720 3540 6717 3539 6708zM6438 6678C 6435 6671 6344 6034 6234 5263L6234 5263L6035 3860L5000 3860L3965 3860L3766 5263C 3656 6034 3565 6671 3562 6678C 3559 6687 3851 6690 5000 6690C 6149 6690 6441 6687 6438 6678z" stroke="none" fill="#000000" fill-rule="nonzero" />
        <path d="M3881 6421C 3870 6414 3895 6216 4029 5275C 4118 4649 4193 4133 4196 4128C 4203 4117 4427 4118 4434 4129C 4438 4134 4422 4326 4400 4557C 4378 4787 4337 5211 4309 5500C 4282 5789 4250 6112 4240 6219C 4227 6351 4217 6416 4208 6421C 4191 6432 3899 6432 3881 6421zM4200 6397C 4200 6392 4269 5665 4350 4826C 4383 4481 4410 4187 4410 4174C 4410 4150 4409 4150 4312 4150L4312 4150L4213 4150L4056 5258C 3970 5867 3900 6373 3900 6383C 3900 6398 3914 6400 4050 6400C 4133 6400 4200 6398 4200 6397z" stroke="none" fill="#000000" fill-rule="nonzero" />
        <path d="M5791 6421C 5783 6416 5770 6328 5755 6164C 5622 4799 5561 4137 5566 4129C 5573 4118 5797 4117 5804 4128C 5807 4133 5882 4649 5971 5275C 6105 6217 6130 6414 6119 6421C 6102 6432 5809 6431 5791 6421zM6105 6388C 6103 6381 6031 5874 5944 5263L5944 5263L5787 4150L5688 4150C 5591 4150 5590 4150 5590 4174C 5590 4187 5610 4408 5635 4666C 5687 5203 5800 6389 5800 6396C 5800 6398 5870 6400 5955 6400C 6074 6400 6108 6397 6105 6388z" stroke="none" fill="#000000" fill-rule="nonzero" />
        <path d="M4450 6389C 4450 6336 4650 4138 4656 4128C 4665 4114 4846 4118 4859 4134C 4867 4144 4869 4451 4868 5281L4868 5281L4865 6415L4658 6418L4450 6420L4450 6389zM4840 5275L4840 4150L4756 4150L4673 4150L4666 4223C 4636 4577 4479 6316 4474 6353L4474 6353L4468 6400L4654 6400L4840 6400L4840 5275z" stroke="none" fill="#000000" fill-rule="nonzero" />
        <path d="M5137 6413C 5133 6410 5130 5898 5130 5275C 5130 4409 5133 4141 5142 4132C 5156 4118 5336 4115 5344 4128C 5350 4137 5550 6336 5550 6389L5550 6389L5550 6420L5347 6420C 5235 6420 5140 6417 5137 6413zM5526 6353C 5521 6316 5364 4577 5334 4223L5334 4223L5327 4150L5244 4150L5160 4150L5160 5275L5160 6400L5346 6400L5532 6400L5526 6353z" stroke="none" fill="#000000" fill-rule="nonzero" />
        <path d="M0 400L0 0L5000 0L10000 0L10000 400L10000 800L5000 800L0 800L0 400zM2192 523C 2215 503 2215 466 2193 449C 2178 438 2177 438 2188 450C 2215 481 2199 522 2155 533C 2136 537 2136 538 2154 539C 2165 539 2182 533 2192 523zM2123 515C 2120 506 2115 501 2113 504C 2110 507 2111 513 2115 519C 2124 535 2130 532 2123 515zM363 401C 385 340 406 293 410 297C 414 301 434 353 455 413C 476 472 497 520 502 520C 513 520 511 515 460 371C 437 307 416 264 407 262C 392 259 390 262 340 405C 325 449 309 493 304 504C 299 517 301 521 310 518C 318 516 342 463 363 401zM880 490C 880 467 884 460 900 460C 911 460 920 456 920 450C 920 445 910 440 899 440C 879 440 878 436 882 369C 885 314 890 295 905 284C 928 267 919 255 892 269C 881 275 870 294 866 311C 856 362 859 520 870 520C 876 520 880 507 880 490zM1395 506C 1420 495 1428 487 1424 476C 1417 457 1419 457 1384 475C 1348 493 1329 494 1306 477C 1278 456 1297 432 1355 415C 1442 390 1463 341 1409 288C 1380 259 1376 258 1319 263C 1251 269 1247 271 1255 292C 1260 305 1267 306 1295 297C 1345 282 1395 298 1395 330C 1395 346 1387 358 1370 366C 1283 406 1265 417 1262 433C 1248 503 1315 539 1395 506zM1500 490C 1500 465 1504 460 1525 460C 1541 460 1550 454 1550 445C 1550 436 1541 430 1525 430C 1501 430 1500 427 1500 370C 1500 315 1502 308 1525 298C 1539 292 1550 283 1550 278C 1550 260 1519 258 1495 274C 1471 290 1470 294 1470 405C 1470 501 1473 520 1485 520C 1495 520 1500 510 1500 490zM1982 458L1985 396L2021 428C 2041 446 2066 460 2076 460C 2090 460 2085 451 2055 420L2055 420L2016 380L2058 320C 2098 263 2099 260 2078 260C 2062 260 2046 274 2025 305C 2009 330 1992 350 1988 350C 1983 350 1980 330 1980 305C 1980 267 1977 260 1960 260C 1941 260 1940 267 1940 390C 1940 512 1941 520 1960 520C 1976 520 1979 512 1982 458zM2175 488C 2176 468 2173 464 2164 471C 2156 478 2150 477 2147 468C 2144 461 2141 470 2141 488C 2140 515 2144 521 2158 518C 2169 516 2175 505 2175 488zM2131 453C 2144 437 2143 436 2128 449C 2111 462 2106 470 2114 470C 2116 470 2124 462 2131 453zM629 434C 641 419 650 394 650 379C 650 350 650 350 585 350C 513 350 502 338 541 299C 558 282 571 279 606 283C 649 287 665 278 634 266C 589 249 528 269 511 307C 466 405 567 513 629 434zM820 450C 837 439 830 437 780 440C 733 442 705 412 705 360C 705 305 731 280 787 280C 814 280 829 276 825 270C 816 255 747 258 723 275C 673 310 673 410 723 445C 747 462 797 465 820 450zM1085 437C 1105 421 1113 402 1117 368C 1122 326 1120 318 1092 290C 1051 249 1009 249 968 290C 940 318 938 326 943 368C 952 450 1027 487 1085 437zM1170 444C 1170 430 1172 430 1192 444C 1216 461 1230 464 1230 453C 1230 448 1216 437 1200 428C 1171 411 1170 409 1170 335C 1170 292 1166 260 1160 260C 1154 260 1150 300 1150 360C 1150 420 1154 460 1160 460C 1166 460 1170 453 1170 444zM1707 445C 1737 424 1751 370 1739 325C 1714 237 1596 237 1571 325C 1551 397 1591 460 1655 460C 1672 460 1695 453 1707 445zM1905 440C 1905 430 1897 426 1878 428C 1820 434 1787 386 1811 328C 1822 300 1847 288 1885 293C 1897 294 1905 289 1905 280C 1905 261 1857 255 1820 270C 1757 296 1752 418 1814 449C 1845 464 1905 458 1905 440zM7289 357C 7297 331 7306 310 7310 310C 7314 310 7323 331 7331 357C 7339 382 7351 405 7357 407C 7365 410 7361 386 7346 343C 7333 305 7317 275 7310 275C 7303 275 7287 305 7274 343C 7259 386 7255 410 7263 407C 7269 405 7281 382 7289 357zM7927 395C 7929 389 7918 384 7904 385C 7865 385 7862 362 7899 349C 7933 337 7948 306 7930 285C 7917 269 7892 266 7866 276C 7839 286 7848 298 7883 296C 7921 295 7926 315 7891 333C 7855 351 7843 375 7860 395C 7874 412 7921 412 7927 395zM8260 375C 8260 340 8276 328 8286 355C 8290 363 8299 370 8308 370C 8321 370 8321 367 8306 351C 8290 333 8290 330 8305 301C 8324 263 8313 261 8283 298L8283 298L8261 325L8260 298C 8260 282 8256 270 8250 270C 8244 270 8240 300 8240 340C 8240 380 8244 410 8250 410C 8256 410 8260 394 8260 375zM8840 407C 8840 403 8806 303 8795 271C 8792 263 8787 260 8784 263C 8776 270 8822 410 8832 410C 8836 410 8840 408 8840 407zM8910 350C 8910 317 8914 290 8920 290C 8926 290 8930 286 8930 280C 8930 275 8917 270 8900 270C 8884 270 8870 275 8870 280C 8870 286 8875 290 8880 290C 8886 290 8890 310 8890 335C 8890 373 8888 378 8873 373C 8857 367 8857 369 8874 388C 8903 422 8910 415 8910 350zM9034 388C 9078 325 9017 234 8966 286C 8957 295 8950 318 8950 340C 8950 404 9002 434 9034 388zM9142 393C 9181 358 9150 271 9098 270C 9088 270 9080 275 9080 280C 9080 286 9089 290 9100 290C 9110 290 9124 299 9131 311C 9140 329 9139 331 9122 326C 9084 314 9054 370 9082 398C 9099 415 9120 413 9142 393zM9270 405C 9270 399 9210 278 9204 271C 9202 269 9197 269 9194 272C 9191 275 9200 301 9214 329C 9228 357 9240 382 9240 385C 9240 388 9227 390 9210 390C 9194 390 9180 395 9180 400C 9180 406 9200 410 9225 410C 9250 410 9270 408 9270 405zM9370 405C 9370 399 9310 278 9304 271C 9302 269 9297 269 9294 272C 9291 275 9300 301 9314 329C 9328 357 9340 382 9340 385C 9340 388 9327 390 9310 390C 9294 390 9280 395 9280 400C 9280 406 9300 410 9325 410C 9350 410 9370 408 9370 405zM9460 400C 9460 395 9449 390 9435 390C 9403 390 9403 374 9434 366C 9461 359 9475 331 9465 301C 9458 278 9428 266 9400 275C 9369 285 9376 298 9413 296C 9441 295 9445 298 9445 320C 9445 342 9441 345 9412 343C 9386 342 9380 345 9384 357C 9387 365 9390 380 9390 391C 9390 406 9397 410 9425 410C 9444 410 9460 406 9460 400zM9568 402C 9590 388 9595 324 9576 295C 9544 246 9490 274 9490 340C 9490 396 9529 426 9568 402zM9687 398C 9701 375 9699 292 9685 280C 9652 253 9599 288 9615 326C 9619 337 9622 353 9621 363C 9616 401 9668 427 9687 398zM7630 365C 7639 355 7639 350 7631 350C 7616 350 7617 293 7633 287C 7639 285 7642 280 7639 276C 7624 259 7602 284 7598 323C 7591 381 7603 397 7630 365zM7990 365C 7999 355 7999 350 7991 350C 7976 350 7977 293 7993 287C 7999 285 8002 280 7999 276C 7984 259 7962 284 7958 323C 7951 381 7963 397 7990 365zM7458 358C 7481 335 7471 320 7434 320C 7388 320 7393 297 7441 290C 7468 286 7471 283 7457 277C 7429 266 7413 268 7396 286C 7364 317 7382 370 7425 370C 7437 370 7451 365 7458 358zM7567 363C 7581 357 7577 354 7550 350C 7521 346 7515 341 7515 320C 7515 299 7520 294 7548 292C 7584 288 7582 270 7545 270C 7517 270 7490 294 7490 320C 7490 342 7515 370 7535 370C 7542 370 7557 367 7567 363zM7744 354C 7775 324 7753 270 7710 270C 7686 270 7660 296 7660 320C 7660 344 7686 370 7710 370C 7720 370 7736 363 7744 354zM7830 360C 7830 356 7823 350 7815 346C 7806 343 7800 327 7800 305C 7800 286 7796 270 7790 270C 7785 270 7780 292 7780 319C 7780 364 7782 368 7805 368C 7819 368 7830 364 7830 360zM8104 354C 8135 324 8113 270 8070 270C 8046 270 8020 296 8020 320C 8020 344 8046 370 8070 370C 8080 370 8096 363 8104 354zM8225 361C 8228 356 8216 350 8198 348C 8170 346 8165 341 8165 320C 8165 299 8170 294 8198 292C 8234 288 8232 270 8195 270C 8167 270 8140 294 8140 320C 8140 357 8207 389 8225 361zM8475 361C 8478 356 8466 350 8448 348C 8420 346 8415 341 8415 320C 8415 299 8420 294 8448 292C 8484 288 8482 270 8445 270C 8417 270 8390 294 8390 320C 8390 357 8457 389 8475 361zM8574 354C 8595 334 8594 311 8573 288C 8553 266 8527 265 8506 286C 8475 316 8497 370 8540 370C 8550 370 8566 363 8574 354zM8687 358C 8694 353 8701 353 8705 360C 8715 376 8747 372 8754 354C 8764 329 8761 270 8750 270C 8745 270 8740 288 8740 311C 8740 344 8737 351 8723 348C 8710 346 8704 334 8702 307C 8698 257 8680 260 8680 311C 8680 347 8678 351 8658 348C 8639 346 8634 338 8632 308C 8627 253 8610 262 8610 318C 8610 366 8610 367 8643 367C 8660 367 8680 363 8687 358zM8360 280C 8360 275 8356 270 8350 270C 8345 270 8340 275 8340 280C 8340 286 8345 290 8350 290C 8356 290 8360 286 8360 280z" stroke="none" fill="#000000" fill-rule="nonzero" />
        <path d="M2150 500C 2150 495 2155 490 2160 490C 2166 490 2170 495 2170 500C 2170 506 2166 510 2160 510C 2155 510 2150 506 2150 500z" stroke="none" fill="#000000" fill-rule="nonzero" />
        <path d="M536 418C 508 379 515 370 575 370C 634 370 642 379 620 421C 605 448 556 446 536 418z" stroke="none" fill="#000000" fill-rule="nonzero" />
        <path d="M986 424C 936 374 965 280 1030 280C 1078 280 1110 330 1096 384C 1083 437 1021 459 986 424z" stroke="none" fill="#000000" fill-rule="nonzero" />
        <path d="M1616 408C 1584 362 1608 290 1655 290C 1683 290 1710 324 1710 360C 1710 396 1683 430 1655 430C 1642 430 1624 420 1616 408z" stroke="none" fill="#000000" fill-rule="nonzero" />
        <path d="M8974 365C 8965 327 8977 290 9000 290C 9013 290 9022 299 9026 315C 9035 353 9023 390 9000 390C 8987 390 8978 381 8974 365z" stroke="none" fill="#000000" fill-rule="nonzero" />
        <path d="M9094 375C 9087 357 9097 340 9115 340C 9133 340 9141 355 9134 374C 9126 394 9101 395 9094 375z" stroke="none" fill="#000000" fill-rule="nonzero" />
        <path d="M9514 365C 9505 327 9517 290 9540 290C 9563 290 9575 327 9566 365C 9562 381 9553 390 9540 390C 9527 390 9518 381 9514 365z" stroke="none" fill="#000000" fill-rule="nonzero" />
        <path d="M9642 373C 9647 347 9680 344 9680 369C 9680 384 9674 390 9659 390C 9645 390 9640 385 9642 373z" stroke="none" fill="#000000" fill-rule="nonzero" />
        <path d="M9634 325C 9626 304 9644 286 9664 293C 9686 302 9684 317 9660 330C 9644 339 9638 338 9634 325z" stroke="none" fill="#000000" fill-rule="nonzero" />
        <path d="M7405 340C 7401 334 7410 330 7424 330C 7438 330 7450 335 7450 340C 7450 346 7441 350 7431 350C 7420 350 7408 346 7405 340z" stroke="none" fill="#000000" fill-rule="nonzero" />
        <path d="M7684 336C 7674 310 7688 288 7712 292C 7729 294 7735 302 7735 320C 7735 338 7729 346 7712 348C 7699 350 7687 345 7684 336z" stroke="none" fill="#000000" fill-rule="nonzero" />
        <path d="M8044 336C 8034 310 8048 288 8072 292C 8089 294 8095 302 8095 320C 8095 338 8089 346 8072 348C 8059 350 8047 345 8044 336z" stroke="none" fill="#000000" fill-rule="nonzero" />
        <path d="M8514 336C 8504 310 8518 288 8542 292C 8559 294 8565 302 8565 320C 8565 338 8559 346 8542 348C 8529 350 8517 345 8514 336z" stroke="none" fill="#000000" fill-rule="nonzero" />
	</g>
</g>
</svg>